<svg width="329" height="328" viewBox="0 0 329 328" fill="none" xmlns="http://www.w3.org/2000/svg">
<path d="M239.6 149C255.4 166.8 265 190.3 265 216C265 271.8 219.8 317 164 317C108.2 317 63 271.8 63 216C63 188.8 73.8 164.1 91.3 145.9C92.7 144.5 238.3 147.5 239.6 149Z" stroke="white" stroke-width="22"/>
<path d="M74 152.5V105.3C74 103.2 76.1 101.8 78 102.5L158.1 132.3C158.4 132.4 158.8 132.5 159.1 132.5H173.7C174 132.5 174.4 132.4 174.7 132.3L251.9 104.9C253.9 104.2 255.9 105.7 255.9 107.7V152.5C255.9 153.6 255.3 154.6 254.3 155.1C183.5 192.6 106.8 171.2 75.4 155.1C74.6 154.6 74 153.6 74 152.5Z" fill="white" stroke="white"/>
<path d="M292 99.4C292 97 293.2 94.7 295.2 93.3C300.2 89.8 307 93.4 307 99.4V242.5C307 246.6 303.6 250 299.5 250C295.4 250 292 246.6 292 242.5V99.4Z" fill="#FFD600"/>
<path d="M292 92.1L307 85V196H292V92.1Z" fill="#FFD600"/>
<path d="M15.4999 64C10.2999 62 10.2999 54.6 15.5999 52.7L164.7 0.700001C166 0.200001 167.4 0.300001 168.7 0.700001L313.8 52.8C319 54.7 319.1 62 313.9 64L168.8 120.2C167.4 120.7 165.9 120.7 164.5 120.2L15.4999 64Z" fill="white"/>
<path d="M299.5 197C307.508 197 314 190.508 314 182.5C314 174.492 307.508 168 299.5 168C291.492 168 285 174.492 285 182.5C285 190.508 291.492 197 299.5 197Z" fill="#FFD600"/>
</svg>
